<?xml version="1.0" standalone="no"?>
<svg 
width="100%" height="auto" viewBox="0 0 1000 400" preserveAspectRatio="xMinYMin meet"
  xmlns="http://www.w3.org/2000/svg">

  <desc> 

  CadsolOnLine  2022-10-04
  
  </desc>

  <rect x="0" y="0" width="1000" height="400" 
   fill="rgb(200,200,200)" stroke="black" stroke-width="1px" />
 
  
<text x="50" y="380" font-size="12" font-family="Verdana" > Cusco   -13,517 Sud  71,978 Ouest</text>
           <text x="26.93946148713428" y="77.02263612634997" font-size="9.600000000000001" font-family="Verdana" stroke="rgb(200,0,0)"> 6</text>
           <text x="243.64490410293433" y="370.9025990609296" font-size="9.600000000000001" font-family="Verdana" stroke="rgb(200,0,0)"> 7</text>
           <text x="410.2110460791222" y="298.8105385481829" font-size="9.600000000000001" font-family="Verdana" stroke="rgb(200,0,0)"> 8</text>
           <text x="451.87126748146443" y="282.9338475308636" font-size="9.600000000000001" font-family="Verdana" stroke="rgb(200,0,0)"> 9</text>
           <text x="473.066998753428" y="276.60444184598015" font-size="9.600000000000001" font-family="Verdana" stroke="rgb(200,0,0)"> 10</text>
           <text x="487.6746975417273" y="273.8206458999124" font-size="9.600000000000001" font-family="Verdana" stroke="rgb(200,0,0)"> 11</text>
           <text x="500" y="273.01315034064163" font-size="9.600000000000001" font-family="Verdana" stroke="rgb(200,0,0)"> 12</text>
           <text x="512.3253024582727" y="273.8206458999124" font-size="9.600000000000001" font-family="Verdana" stroke="rgb(200,0,0)"> 13</text>
           <text x="526.9330012465721" y="276.60444184598015" font-size="9.600000000000001" font-family="Verdana" stroke="rgb(200,0,0)"> 14</text>
           <text x="548.1287325185356" y="282.9338475308636" font-size="9.600000000000001" font-family="Verdana" stroke="rgb(200,0,0)"> 15</text>
           <text x="589.7889539208778" y="298.8105385481829" font-size="9.600000000000001" font-family="Verdana" stroke="rgb(200,0,0)"> 16</text>
           <text x="756.3550958970657" y="370.9025990609296" font-size="9.600000000000001" font-family="Verdana" stroke="rgb(200,0,0)"> 17</text>
           <text x="973.0605385128657" y="77.02263612634997" font-size="9.600000000000001" font-family="Verdana" stroke="rgb(200,0,0)"> 18</text>
            
				          <polyline fill="none" stroke="rgb(200,0,0)" stroke-width="1"
				           points= " 106.217,77.023   106.055,77.023   105.744,77.023   105.285,77.023   104.677,77.023   103.918,77.023   103.008,77.023   97.422,77.023   87.109,77.023   72.371,77.023   52.607,77.023   26.939,77.023   " /> 
				          <polyline fill="none" stroke="rgb(200,0,0)" stroke-width="1"
				           points= " 390.812,202.193   390.800,202.208   390.775,202.236   390.738,202.278   390.690,202.333   390.630,202.402   390.559,202.484   390.123,202.983   389.342,203.878   388.274,205.103   386.923,206.652   385.294,208.519   383.394,210.697   381.226,213.182   378.796,215.969   376.105,219.053   373.156,222.434   369.947,226.112   366.477,230.090   362.742,234.373   358.735,238.966   354.449,243.879   349.877,249.121   345.009,254.701   339.838,260.629   334.357,266.912   328.564,273.553   322.462,280.549   316.060,287.887   309.382,295.544   302.462,303.475   295.359,311.619   288.149,319.884   280.940,328.148   273.866,336.258   267.090,344.026   260.802,351.234   255.207,357.648   250.516,363.026   246.923,367.144   244.951,369.405   244.592,369.817   244.288,370.166   244.039,370.451   243.847,370.671   243.711,370.827   243.632,370.917   243.610,370.943   243.645,370.903   " /> 
				          <polyline fill="none" stroke="rgb(200,0,0)" stroke-width="1"
				           points= " 441.181,222.310   441.177,222.321   441.169,222.340   441.158,222.370   441.142,222.408   441.123,222.456   441.099,222.513   440.959,222.860   440.708,223.479   440.367,224.321   439.940,225.376   439.431,226.635   438.844,228.085   438.184,229.715   437.456,231.513   436.664,233.469   435.813,235.571   434.907,237.810   433.949,240.177   432.942,242.664   431.889,245.264   430.793,247.971   429.657,250.778   428.483,253.677   427.274,256.662   426.035,259.724   424.769,262.851   423.482,266.031   422.180,269.247   420.871,272.478   419.567,275.701   418.279,278.883   417.021,281.990   415.810,284.979   414.666,287.806   413.608,290.419   412.658,292.765   411.838,294.792   411.167,296.450   410.663,297.694   410.390,298.368   410.341,298.490   410.299,298.593   410.265,298.677   410.239,298.742   410.220,298.788   410.209,298.815   410.206,298.822   410.211,298.811   " /> 
				          <polyline fill="none" stroke="rgb(200,0,0)" stroke-width="1"
				           points= " 464.234,230.040   464.232,230.048   464.229,230.064   464.223,230.087   464.216,230.117   464.208,230.155   464.197,230.199   464.134,230.471   464.020,230.955   463.867,231.612   463.675,232.432   463.448,233.407   463.186,234.524   462.894,235.774   462.574,237.144   462.228,238.624   461.859,240.204   461.468,241.875   461.059,243.627   460.632,245.453   460.189,247.346   459.733,249.299   459.264,251.305   458.784,253.358   458.295,255.451   457.798,257.576   457.296,259.724   456.791,261.886   456.285,264.050   455.782,266.202   455.286,268.326   454.801,270.401   454.332,272.407   453.885,274.319   453.466,276.110   453.082,277.752   452.741,279.215   452.447,280.469   452.209,281.490   452.031,282.252   451.934,282.664   451.917,282.738   451.902,282.801   451.890,282.853   451.881,282.892   451.874,282.920   451.871,282.936   451.870,282.941   451.871,282.934   " /> 
				          <polyline fill="none" stroke="rgb(200,0,0)" stroke-width="1"
				           points= " 478.852,233.734   478.851,233.741   478.849,233.754   478.847,233.774   478.843,233.800   478.839,233.832   478.834,233.870   478.802,234.103   478.747,234.517   478.671,235.078   478.576,235.777   478.465,236.607   478.337,237.556   478.194,238.614   478.037,239.772   477.869,241.018   477.690,242.345   477.502,243.742   477.305,245.203   477.100,246.720   476.889,248.285   476.671,249.894   476.449,251.540   476.223,253.217   475.993,254.919   475.761,256.640   475.527,258.372   475.293,260.108   475.060,261.837   474.829,263.549   474.602,265.230   474.381,266.867   474.168,268.443   473.967,269.938   473.778,271.334   473.606,272.609   473.453,273.741   473.323,274.709   473.217,275.495   473.138,276.081   473.095,276.397   473.087,276.454   473.081,276.503   473.075,276.542   473.071,276.573   473.068,276.594   473.067,276.606   473.066,276.610   473.067,276.604   " /> 
				          <polyline fill="none" stroke="rgb(200,0,0)" stroke-width="1"
				           points= " 490.075,235.495   490.075,235.501   490.074,235.513   490.073,235.531   490.071,235.555   490.069,235.584   490.067,235.619   490.054,235.832   490.030,236.212   489.998,236.725   489.958,237.366   489.910,238.124   489.856,238.990   489.796,239.956   489.730,241.010   489.659,242.144   489.583,243.349   489.504,244.616   489.421,245.938   489.335,247.309   489.247,248.721   489.156,250.169   489.063,251.648   488.969,253.152   488.874,254.676   488.777,256.213   488.681,257.757   488.584,259.301   488.488,260.836   488.393,262.353   488.300,263.840   488.209,265.284   488.122,266.672   488.040,267.987   487.963,269.212   487.893,270.329   487.831,271.320   487.778,272.167   487.735,272.853   487.703,273.364   487.686,273.640   487.683,273.690   487.680,273.732   487.678,273.766   487.676,273.793   487.675,273.812   487.675,273.822   487.674,273.825   487.675,273.821   " /> 
				          <polyline fill="none" stroke="rgb(200,0,0)" stroke-width="1"
				           points= " 500.000,236.022   500.000,236.028   500.000,236.040   500.000,236.058   500.000,236.081   500.000,236.109   500.000,236.144   500.000,236.351   500.000,236.720   500.000,237.219   500.000,237.841   500.000,238.577   500.000,239.419   500.000,240.356   500.000,241.379   500.000,242.480   500.000,243.648   500.000,244.876   500.000,246.157   500.000,247.483   500.000,248.850   500.000,250.251   500.000,251.680   500.000,253.133   500.000,254.604   500.000,256.087   500.000,257.576   500.000,259.064   500.000,260.542   500.000,262.002   500.000,263.433   500.000,264.822   500.000,266.155   500.000,267.418   500.000,268.594   500.000,269.666   500.000,270.616   500.000,271.428   500.000,272.086   500.000,272.576   500.000,272.840   500.000,272.888   500.000,272.928   500.000,272.961   500.000,272.986   500.000,273.004   500.000,273.015   500.000,273.018   500.000,273.013   " /> 
				          <polyline fill="none" stroke="rgb(200,0,0)" stroke-width="1"
				           points= " 509.925,235.495   509.925,235.501   509.926,235.513   509.927,235.531   509.929,235.555   509.931,235.584   509.933,235.619   509.946,235.832   509.970,236.212   510.002,236.725   510.042,237.366   510.090,238.124   510.144,238.990   510.204,239.956   510.270,241.010   510.341,242.144   510.417,243.349   510.496,244.616   510.579,245.938   510.665,247.309   510.753,248.721   510.844,250.169   510.937,251.648   511.031,253.152   511.126,254.676   511.223,256.213   511.319,257.757   511.416,259.301   511.512,260.836   511.607,262.353   511.700,263.840   511.791,265.284   511.878,266.672   511.960,267.987   512.037,269.212   512.107,270.329   512.169,271.320   512.222,272.167   512.265,272.853   512.297,273.364   512.314,273.640   512.317,273.690   512.320,273.732   512.322,273.766   512.324,273.793   512.325,273.812   512.325,273.822   512.326,273.825   512.325,273.821   " /> 
				          <polyline fill="none" stroke="rgb(200,0,0)" stroke-width="1"
				           points= " 521.148,233.734   521.149,233.741   521.151,233.754   521.153,233.774   521.157,233.800   521.161,233.832   521.166,233.870   521.198,234.103   521.253,234.517   521.329,235.078   521.424,235.777   521.535,236.607   521.663,237.556   521.806,238.614   521.963,239.772   522.131,241.018   522.310,242.345   522.498,243.742   522.695,245.203   522.900,246.720   523.111,248.285   523.329,249.894   523.551,251.540   523.777,253.217   524.007,254.919   524.239,256.640   524.473,258.372   524.707,260.108   524.940,261.837   525.171,263.549   525.398,265.230   525.619,266.867   525.832,268.443   526.033,269.938   526.222,271.334   526.394,272.609   526.547,273.741   526.677,274.709   526.783,275.495   526.862,276.081   526.905,276.397   526.913,276.454   526.919,276.503   526.925,276.542   526.929,276.573   526.932,276.594   526.933,276.606   526.934,276.610   526.933,276.604   " /> 
				          <polyline fill="none" stroke="rgb(200,0,0)" stroke-width="1"
				           points= " 535.766,230.040   535.768,230.048   535.771,230.064   535.777,230.087   535.784,230.117   535.792,230.155   535.803,230.199   535.866,230.471   535.980,230.955   536.133,231.612   536.325,232.432   536.552,233.407   536.814,234.524   537.106,235.774   537.426,237.144   537.772,238.624   538.141,240.204   538.532,241.875   538.941,243.627   539.368,245.453   539.811,247.346   540.267,249.299   540.736,251.305   541.216,253.358   541.705,255.451   542.202,257.576   542.704,259.724   543.209,261.886   543.715,264.050   544.218,266.202   544.714,268.326   545.199,270.401   545.668,272.407   546.115,274.319   546.534,276.110   546.918,277.752   547.259,279.215   547.553,280.469   547.791,281.490   547.969,282.252   548.066,282.664   548.083,282.738   548.098,282.801   548.110,282.853   548.119,282.892   548.126,282.920   548.129,282.936   548.130,282.941   548.129,282.934   " /> 
				          <polyline fill="none" stroke="rgb(200,0,0)" stroke-width="1"
				           points= " 558.819,222.310   558.823,222.321   558.831,222.340   558.842,222.370   558.858,222.408   558.877,222.456   558.901,222.513   559.041,222.860   559.292,223.479   559.633,224.321   560.060,225.376   560.569,226.635   561.156,228.085   561.816,229.715   562.544,231.513   563.336,233.469   564.187,235.571   565.093,237.810   566.051,240.177   567.058,242.664   568.111,245.264   569.207,247.971   570.343,250.778   571.517,253.677   572.726,256.662   573.965,259.724   575.231,262.851   576.518,266.031   577.820,269.247   579.129,272.478   580.433,275.701   581.721,278.883   582.979,281.990   584.190,284.979   585.334,287.806   586.392,290.419   587.342,292.765   588.162,294.792   588.833,296.450   589.337,297.694   589.610,298.368   589.659,298.490   589.701,298.593   589.735,298.677   589.761,298.742   589.780,298.788   589.791,298.815   589.794,298.822   589.789,298.811   " /> 
				          <polyline fill="none" stroke="rgb(200,0,0)" stroke-width="1"
				           points= " 609.188,202.193   609.200,202.208   609.225,202.236   609.262,202.278   609.310,202.333   609.370,202.402   609.441,202.484   609.877,202.983   610.658,203.878   611.726,205.103   613.077,206.652   614.706,208.519   616.606,210.697   618.774,213.182   621.204,215.969   623.895,219.053   626.844,222.434   630.053,226.112   633.523,230.090   637.258,234.373   641.265,238.966   645.551,243.879   650.123,249.121   654.991,254.701   660.162,260.629   665.643,266.912   671.436,273.553   677.538,280.549   683.940,287.887   690.618,295.544   697.538,303.475   704.641,311.619   711.851,319.884   719.060,328.148   726.134,336.258   732.910,344.026   739.198,351.234   744.793,357.648   749.484,363.026   753.077,367.144   755.049,369.405   755.408,369.817   755.712,370.166   755.961,370.451   756.153,370.671   756.289,370.827   756.368,370.917   756.390,370.943   756.355,370.903   " /> 
				          <polyline fill="none" stroke="rgb(200,0,0)" stroke-width="1"
				           points= " 893.783,77.023   893.945,77.023   894.256,77.023   894.715,77.023   895.323,77.023   896.082,77.023   896.992,77.023   902.578,77.023   912.891,77.023   927.629,77.023   947.393,77.023   973.061,77.023   " />
			<line x1="500.000" y1="77.023" x2="500.000" y2="243.000"
			stroke="black" stroke-width="1"/>
			
			<line x1="497.000" y1="246.000" x2="503.000" y2="240.000"
			stroke="black" stroke-width="1"/>
			
			<line x1="497.000" y1="240.000" x2="503.000" y2="246.000"
			stroke="black" stroke-width="1"/>
			</svg>